<?xml version="1.0" encoding="utf-8"?><svg viewBox="0 0 100 100" xmlns="http://www.w3.org/2000/svg" width="200px" height="200px" xmlns:xlink="http://www.w3.org/1999/xlink" style="width:100%;height:100%;background-size:initial;background-repeat-y:initial;background-repeat-x:initial;background-position-y:initial;background-position-x:initial;background-origin:initial;background-image:initial;background-color:rgb(255, 255, 255);background-clip:initial;background-attachment:initial;animation-play-state:paused" ><g class="ldl-scale" style="transform-origin:50% 50%;transform:rotate(0deg) scale(0.8, 0.8);animation-play-state:paused" ><path stroke-miterlimit="10" stroke-linejoin="round" stroke-linecap="round" stroke-width="3" stroke="#76a4bd" fill="none" d="M89.064 89.295l.493-7.145a5.067 5.067 0 0 0-1.396-3.311L75.057 65.096a5.064 5.064 0 0 0-3.666-1.57h-7.808a3.574 3.574 0 0 1-3.574-3.574v-5.623c4.494-2.129 7.611-6.693 7.611-11.996V28.777c0-7.27-5.893-13.163-13.163-13.163h-8.913c-7.27 0-13.163 5.893-13.163 13.163v13.557c0 5.303 3.116 9.867 7.611 11.996v5.623c0 1.974-1.6 3.574-3.574 3.574H28.61c-1.385 0-2.71.567-3.666 1.57L11.839 78.838a5.062 5.062 0 0 0-1.396 3.312l.493 7.145" style="stroke:rgb(118, 164, 189);animation-play-state:paused" ></path>
<g style="animation-play-state:paused" ><path stroke-miterlimit="10" stroke-linejoin="round" stroke-linecap="round" stroke-width="3" stroke="#000" fill="none" d="M72.75 34.705v-6.827c0-9.484-7.689-17.173-17.173-17.173H44.423c-9.484 0-17.173 7.689-17.173 17.173v6.827" style="animation-play-state:paused" ></path>
<path stroke-miterlimit="10" stroke-linejoin="round" stroke-linecap="round" stroke-width="3" stroke="#000" fill="none" d="M44.423 60.705c-9.484 0-17.173-7.689-17.173-17.173v-6.827" style="animation-play-state:paused" ></path>
<path d="M50 60.705h-5.577" stroke-miterlimit="10" stroke-linejoin="round" stroke-linecap="round" stroke-width="6" stroke="#000" fill="none" style="animation-play-state:paused" ></path>
<path stroke-miterlimit="10" stroke-linejoin="round" stroke-linecap="round" stroke-width="3" stroke="#000" fill="none" d="M27.25 44.474h0a6.5 6.5 0 0 1-6.5-6.5V35.08a6.5 6.5 0 0 1 6.5-6.5h0v15.894z" style="animation-play-state:paused" ></path>
<path stroke-miterlimit="10" stroke-linejoin="round" stroke-linecap="round" stroke-width="3" stroke="#000" fill="none" d="M72.75 44.474h0a6.5 6.5 0 0 0 6.5-6.5V35.08a6.5 6.5 0 0 0-6.5-6.5h0v15.894z" style="animation-play-state:paused" ></path></g>
<metadata xmlns:d="https://loading.io/stock/" style="animation-play-state:paused" ><d:name style="animation-play-state:paused" >customer service</d:name>


<d:tags style="animation-play-state:paused" >customer service,support,helpdesk,contact,information,expertise,servant,call center,operator,concall</d:tags>


<d:license style="animation-play-state:paused" >by</d:license>


<d:slug style="animation-play-state:paused" >iv776d</d:slug></metadata></g><!-- generated by https://loading.io/ --></svg>