<?xml version="1.0" encoding="utf-8"?><svg xml:space="preserve" viewBox="0 0 100 100" y="0px" x="0px" xmlns:xlink="http://www.w3.org/1999/xlink" xmlns="http://www.w3.org/2000/svg" id="圖層_1" version="1.1" width="200px" height="200px" style="width:100%;height:100%;background-size:initial;background-repeat-y:initial;background-repeat-x:initial;background-position-y:initial;background-position-x:initial;background-origin:initial;background-image:initial;background-color:rgb(255, 255, 255);background-clip:initial;background-attachment:initial;animation-play-state:paused" ><g class="ldl-scale" style="transform-origin:50% 50%;transform:rotate(0deg) scale(0.8, 0.8);animation-play-state:paused" ><path d="M86.520424,37.555782H38.47958c-3.302406,0-5.97958,2.677174-5.97958,5.97958v33.075783 c0,3.302444,2.677174,5.979622,5.97958,5.979622h28.278934c0.624153,6.368408,5.992249,11.345085,12.524673,11.345085h0.000046 V82.590767h7.23719c3.302399,0,5.979576-2.677177,5.979576-5.979622V43.535362 C92.5,40.232956,89.822823,37.555782,86.520424,37.555782z" stroke-miterlimit="10" stroke-linejoin="round" stroke-linecap="round" stroke-width="3.5" stroke="#333435" fill="#D2D2D3" style="stroke:rgb(51, 52, 53);fill:rgb(210, 210, 211);animation-play-state:paused" ></path>
<path d="M13.479578,13.555782h48.04084c3.302402,0,5.97958,2.677174,5.97958,5.979578v33.075783 c0,3.302448-2.677177,5.979622-5.97958,5.979622H33.241486c-0.624153,6.368408-5.992247,11.345085-12.524673,11.345085h-0.000044 V58.590767h-7.23719c-3.302403,0-5.979578-2.677174-5.979578-5.979622V19.53536 C7.5,16.232956,10.177175,13.555782,13.479578,13.555782z" stroke-miterlimit="10" stroke-linejoin="round" stroke-linecap="round" stroke-width="3.5" stroke="#333435" fill="#FFFFFF" style="stroke:rgb(51, 52, 53);fill:rgb(255, 255, 255);animation-play-state:paused" ></path>
<line y2="26" x2="57.5" y1="26" x1="18.5" stroke-miterlimit="10" stroke-linejoin="round" stroke-linecap="round" stroke-width="3.5" stroke="#333435" fill="none" style="stroke:rgb(51, 52, 53);animation-play-state:paused" ></line>
<line y2="35.915253" x2="57.5" y1="35.915253" x1="18.5" stroke-miterlimit="10" stroke-linejoin="round" stroke-linecap="round" stroke-width="3.5" stroke="#333435" fill="none" style="stroke:rgb(51, 52, 53);animation-play-state:paused" ></line>
<line y2="45.830509" x2="39.652542" y1="45.830509" x1="18.5" stroke-miterlimit="10" stroke-linejoin="round" stroke-linecap="round" stroke-width="3.5" stroke="#333435" fill="none" style="stroke:rgb(51, 52, 53);animation-play-state:paused" ></line>
<metadata xmlns:d="https://loading.io/stock/" style="animation-play-state:paused" ><d:name style="animation-play-state:paused" >discuss</d:name>


<d:tags style="animation-play-state:paused" >discuss,confirm,consider,debate,deliberate,explain,social,business</d:tags>


<d:license style="animation-play-state:paused" >by</d:license>


<d:slug style="animation-play-state:paused" >mt8cvr</d:slug></metadata></g><!-- generated by https://loading.io/ --></svg>