<?xml version="1.0" ?><!DOCTYPE svg  PUBLIC '-//W3C//DTD SVG 1.1//EN'  'http://www.w3.org/Graphics/SVG/1.1/DTD/svg11.dtd'><svg height="8.4666mm" style="shape-rendering:geometricPrecision; text-rendering:geometricPrecision; image-rendering:optimizeQuality; fill-rule:evenodd; clip-rule:evenodd" version="1.1" viewBox="0 0 846.66 846.66" width="8.4666mm" xml:space="preserve" xmlns="http://www.w3.org/2000/svg" xmlns:xlink="http://www.w3.org/1999/xlink"><defs><style type="text/css">
   <![CDATA[
    .fil0 {fill:black;fill-rule:nonzero}
   ]]>
  </style></defs><g id="Layer_x0020_1"><path class="fil0" d="M327.49 579.09l-260.77 0c-11.43,0 -20.71,-9.28 -20.71,-20.71l0 -426.04c0,-11.44 9.28,-20.71 20.71,-20.71l215.14 0c0.45,-56.66 46.88,-102.71 103.55,-102.71l43.52 0c56.67,0 103.1,46.05 103.55,102.71l215.14 0c11.43,0 20.71,9.27 20.71,20.71l0 142.85 11.61 0c11.44,0 20.71,9.27 20.71,20.71l0 521.13c0,11.44 -9.27,20.71 -20.71,20.71l-431.74 0c-11.44,0 -20.71,-9.27 -20.71,-20.71l0 -237.94zm-127.94 -426.04l0 384.62 127.94 0 0 -241.77c0,-11.44 9.27,-20.71 20.71,-20.71l378.71 0 0 -122.14c-175.79,0 -351.58,0 -527.36,0zm-41.42 384.62l0 -384.62 -70.7 0 0 384.62 70.7 0zm273.28 -50.36c-27.24,0 -27.24,-41.43 0,-41.43l265.32 0c27.24,0 27.24,41.43 0,41.43l-265.32 0zm0 179.73c-27.24,0 -27.24,-41.42 0,-41.42l265.32 0c27.24,0 27.24,41.42 0,41.42l-265.32 0zm0 -89.86c-27.24,0 -27.24,-41.43 0,-41.43l265.32 0c27.24,0 27.24,41.43 0,41.43l-265.32 0zm327.82 -260.57l-390.32 0 0 479.71 390.32 0 0 -479.71zm-435.95 -204.98l167.78 0c-0.46,-33.79 -28.32,-61.29 -62.13,-61.29l-43.52 0c-33.8,0 -61.67,27.5 -62.13,61.29z"/></g></svg>