<svg xmlns="http://www.w3.org/2000/svg" version="1.1" xmlns:xlink="http://www.w3.org/1999/xlink" xmlns:svgjs="http://svgjs.dev/svgjs" width="1000" height="623" viewBox="0 0 1000 623"><g transform="matrix(1,0,0,1,-0.6060606060606233,0.2522267206477409)"><svg viewBox="0 0 396 247" data-background-color="#1b4571" preserveAspectRatio="xMidYMid meet" height="623" width="1000" xmlns="http://www.w3.org/2000/svg" xmlns:xlink="http://www.w3.org/1999/xlink"><g id="tight-bounds" transform="matrix(1,0,0,1,0.2400000000000091,-0.09999999999999432)"><svg viewBox="0 0 395.52 247.2" height="247.2" width="395.52"><g><svg></svg></g><g><svg viewBox="0 0 395.52 247.2" height="247.2" width="395.52"><g transform="matrix(1,0,0,1,75.54432,101.29372608116293)"><svg viewBox="0 0 244.43135999999998 44.612547837674136" height="44.612547837674136" width="244.43135999999998"><g><svg viewBox="0 0 244.43135999999998 44.612547837674136" height="44.612547837674136" width="244.43135999999998"><g><svg viewBox="0 0 244.43135999999998 44.612547837674136" height="44.612547837674136" width="244.43135999999998"><g><svg viewBox="0 0 244.43135999999998 44.612547837674136" height="44.612547837674136" width="244.43135999999998"><g id="textblocktransform"><svg viewBox="0 0 244.43135999999998 44.612547837674136" height="44.612547837674136" width="244.43135999999998" id="textblock"><g><svg viewBox="0 0 244.43135999999998 44.612547837674136" height="44.612547837674136" width="244.43135999999998"><g transform="matrix(1,0,0,1,0,0)"><svg width="244.43135999999998" viewBox="3.799999952316284 -35.79999923706055 247.62998962402344 45.19999694824219" height="44.612547837674136" data-palette-color="#ffffff"><path d="M27.45-10.8L33.35 0 26.35 0 20.3-11.25Q19.45-12.85 18.2-13.5 16.95-14.15 15.05-14.15L15.05-14.15 10.15-14.15 10.15 0 3.8 0 3.8-35.25 19.4-35.25Q25.4-35.25 28.53-32.58 31.65-29.9 31.65-24.85L31.65-24.85Q31.65-20.8 29.38-18.18 27.1-15.55 22.95-14.75L22.95-14.75Q25.75-14 27.45-10.8L27.45-10.8ZM18.5-19.1Q22.15-19.1 23.85-20.48 25.55-21.85 25.55-24.7L25.55-24.7Q25.55-27.6 23.85-28.93 22.15-30.25 18.5-30.25L18.5-30.25 10.1-30.25 10.1-19.1 18.5-19.1ZM59.45-12.85L59.45-11.1 42.8-11.1Q43.1-7.7 44.85-6.05 46.6-4.4 49.85-4.4L49.85-4.4Q53.9-4.4 57.25-7L57.25-7 59.05-2.7Q57.35-1.3 54.77-0.45 52.2 0.4 49.6 0.4L49.6 0.4Q43.6 0.4 40.12-3 36.65-6.4 36.65-12.3L36.65-12.3Q36.65-16.05 38.15-18.95 39.65-21.85 42.37-23.45 45.1-25.05 48.55-25.05L48.55-25.05Q53.6-25.05 56.52-21.8 59.45-18.55 59.45-12.85L59.45-12.85ZM48.7-20.65Q46.2-20.65 44.67-19.05 43.15-17.45 42.8-14.45L42.8-14.45 54.1-14.45Q54-17.5 52.6-19.07 51.2-20.65 48.7-20.65L48.7-20.65ZM82.15-24.45L88.34-24.45 88.34-2.25Q88.34 3.5 85.17 6.45 82 9.4 75.8 9.4L75.8 9.4Q72.59 9.4 69.64 8.58 66.7 7.75 64.5 6.25L64.5 6.25 66.25 1.85Q70.8 4.6 75.65 4.6L75.65 4.6Q82.15 4.6 82.15-1.8L82.15-1.8 82.15-5Q81.05-2.95 78.95-1.83 76.84-0.7 74.15-0.7L74.15-0.7Q70.95-0.7 68.47-2.23 66-3.75 64.59-6.5 63.2-9.25 63.2-12.85L63.2-12.85Q63.2-16.45 64.57-19.23 65.95-22 68.45-23.53 70.95-25.05 74.15-25.05L74.15-25.05Q76.84-25.05 78.95-23.93 81.05-22.8 82.15-20.75L82.15-20.75 82.15-24.45ZM75.8-5.55Q78.8-5.55 80.47-7.5 82.15-9.45 82.15-12.85L82.15-12.85Q82.15-16.3 80.47-18.25 78.8-20.2 75.8-20.2L75.8-20.2Q72.84-20.2 71.15-18.25 69.45-16.3 69.45-12.85L69.45-12.85Q69.45-9.5 71.15-7.53 72.84-5.55 75.8-5.55L75.8-5.55ZM101.04 0L94.79 0 94.79-24.45 101.04-24.45 101.04 0ZM94.44-29.65L94.44-35.8 101.34-35.8 101.34-29.65 94.44-29.65ZM116.49 0.4Q113.24 0.4 110.52-0.4 107.79-1.2 105.89-2.7L105.89-2.7 107.64-7.05Q111.54-4.2 116.59-4.2L116.59-4.2Q118.74-4.2 119.87-4.9 120.99-5.6 120.99-6.9L120.99-6.9Q120.99-8 120.22-8.6 119.44-9.2 117.44-9.7L117.44-9.7 113.44-10.6Q110.04-11.35 108.39-13.05 106.74-14.75 106.74-17.45L106.74-17.45Q106.74-19.7 108.02-21.43 109.29-23.15 111.57-24.1 113.84-25.05 116.84-25.05L116.84-25.05Q119.44-25.05 121.87-24.25 124.29-23.45 126.14-22L126.14-22 124.39-17.75Q120.59-20.5 116.79-20.5L116.79-20.5Q114.74-20.5 113.59-19.75 112.44-19 112.44-17.65L112.44-17.65Q112.44-16.65 113.17-16 113.89-15.35 115.49-15L115.49-15 119.64-14.05Q123.29-13.25 124.99-11.53 126.69-9.8 126.69-7L126.69-7Q126.69-3.6 123.94-1.6 121.19 0.4 116.49 0.4L116.49 0.4ZM143.99-4.3Q145.09-4.3 146.29-4.45L146.29-4.45 145.99 0.2Q144.49 0.35 143.24 0.35L143.24 0.35Q138.09 0.35 135.64-2.02 133.19-4.4 133.19-9.1L133.19-9.1 133.19-19.75 128.49-19.75 128.49-24.45 133.19-24.45 133.19-31.75 139.44-31.75 139.44-24.45 145.89-24.45 145.89-19.75 139.44-19.75 139.44-9.2Q139.44-4.3 143.99-4.3L143.99-4.3ZM165.63-25.1L166.03-19.85 162.38-19.5Q156.19-18.85 156.19-13.2L156.19-13.2 156.19 0 149.94 0 149.94-24.45 155.88-24.45 155.88-20.15Q157.78-24.55 163.74-24.95L163.74-24.95 165.63-25.1ZM179.48-25.05Q184.63-25.05 187.13-22.55 189.63-20.05 189.63-14.85L189.63-14.85 189.63 0 183.68 0 183.68-3.75Q182.83-1.8 181.01-0.7 179.18 0.4 176.78 0.4L176.78 0.4Q174.33 0.4 172.33-0.6 170.33-1.6 169.18-3.35 168.03-5.1 168.03-7.25L168.03-7.25Q168.03-9.95 169.41-11.5 170.78-13.05 173.88-13.75 176.98-14.45 182.43-14.45L182.43-14.45 183.68-14.45 183.68-15.6Q183.68-18.1 182.61-19.2 181.53-20.3 179.03-20.3L179.03-20.3Q177.08-20.3 174.96-19.63 172.83-18.95 170.78-17.75L170.78-17.75 169.03-22.05Q171.08-23.35 173.98-24.2 176.88-25.05 179.48-25.05L179.48-25.05ZM178.03-4.1Q180.53-4.1 182.11-5.78 183.68-7.45 183.68-10.1L183.68-10.1 183.68-11.15 182.78-11.15Q179.43-11.15 177.58-10.85 175.73-10.55 174.93-9.8 174.13-9.05 174.13-7.75L174.13-7.75Q174.13-6.15 175.23-5.13 176.33-4.1 178.03-4.1L178.03-4.1ZM204.43-5.2L220.08-5.2 220.08 0 196.38 0 196.38-4.75 208.38-17.65Q210.48-19.95 211.46-21.88 212.43-23.8 212.43-25.7L212.43-25.7Q212.43-28.1 211.06-29.33 209.68-30.55 207.03-30.55L207.03-30.55Q202.28-30.55 197.48-26.9L197.48-26.9 195.33-31.6Q197.43-33.45 200.71-34.58 203.98-35.7 207.28-35.7L207.28-35.7Q212.58-35.7 215.68-33.1 218.78-30.5 218.78-26.1L218.78-26.1Q218.78-23.05 217.48-20.38 216.18-17.7 213.08-14.4L213.08-14.4 204.43-5.2ZM246.48-11.9L251.43-11.9 251.43-6.9 246.48-6.9 246.48 0 240.18 0 240.18-6.9 224.88-6.9 224.88-11.65 241.28-35.25 246.48-35.25 246.48-11.9ZM240.18-25.35L230.88-11.9 240.18-11.9 240.18-25.35Z" opacity="1" transform="matrix(1,0,0,1,0,0)" fill="#ffffff" class="wordmark-text-0" data-fill-palette-color="primary" id="text-0"></path></svg></g></svg></g></svg></g></svg></g></svg></g></svg></g></svg></g><path d="M187.1 95.294L187.1 33.796 7.492 33.796 7.492 213.404 187.1 213.404 187.1 151.906 183.077 151.906 183.077 209.381 11.515 209.381 11.515 37.819 183.077 37.819 183.077 95.294Z" fill="#ffffff" stroke="transparent" data-fill-palette-color="primary"></path></svg></g><defs></defs></svg><rect width="395.52" height="247.2" fill="none" stroke="none" visibility="hidden"></rect></g></svg></g></svg>