<?xml version="1.0" encoding="utf-8"?><svg viewBox="0 0 100 100" xmlns="http://www.w3.org/2000/svg" width="200px" height="200px" xmlns:xlink="http://www.w3.org/1999/xlink" style="width:100%;height:100%;background-size:initial;background-repeat-y:initial;background-repeat-x:initial;background-position-y:initial;background-position-x:initial;background-origin:initial;background-image:initial;background-color:rgb(255, 255, 255);background-clip:initial;background-attachment:initial;animation-play-state:paused" ><g class="ldl-scale" style="transform-origin:50% 50%;transform:rotate(0deg) scale(0.8, 0.8);animation-play-state:paused" ><path stroke-miterlimit="10" stroke-linejoin="round" stroke-linecap="round" stroke-width="3" stroke="#323232" fill="none" d="M86.708 84.789H13.292A3.292 3.292 0 0 1 10 81.497v-50.88a3.292 3.292 0 0 1 3.292-3.292h73.415a3.292 3.292 0 0 1 3.292 3.292v50.88a3.29 3.29 0 0 1-3.291 3.292z" style="stroke:rgb(50, 50, 50);animation-play-state:paused" ></path>
<path stroke-miterlimit="10" stroke-linejoin="round" stroke-linecap="round" stroke-width="3" stroke="#323232" fill="none" d="M10 46.942c0 7.947 16.668 12.267 34.788 12.959" style="stroke:rgb(50, 50, 50);animation-play-state:paused" ></path>
<path stroke-miterlimit="10" stroke-linejoin="round" stroke-linecap="round" stroke-width="3" stroke="#323232" fill="none" d="M55.211 59.901C73.331 59.209 90 54.889 90 46.942" style="stroke:rgb(50, 50, 50);animation-play-state:paused" ></path>
<path stroke-miterlimit="10" stroke-linejoin="round" stroke-linecap="round" stroke-width="3" stroke="#323232" fill="none" d="M32.131 27.324v-6.541a5.572 5.572 0 0 1 5.572-5.572h24.595a5.572 5.572 0 0 1 5.572 5.572v6.541" style="stroke:rgb(50, 50, 50);animation-play-state:paused" ></path>
<path d="M44.789 46.942h10.423v23.199H44.789z" stroke-miterlimit="10" stroke-linejoin="round" stroke-linecap="round" stroke-width="3" stroke="#323232" fill="none" style="stroke:rgb(50, 50, 50);animation-play-state:paused" ></path>
<metadata xmlns:d="https://loading.io/stock/" style="animation-play-state:paused" ><d:name style="animation-play-state:paused" >work</d:name>


<d:tags style="animation-play-state:paused" >work,business,sales,briefcase,box,carry,baggage,backpack,suitcase</d:tags>


<d:license style="animation-play-state:paused" >by</d:license>


<d:slug style="animation-play-state:paused" >uoietl</d:slug></metadata></g><!-- generated by https://loading.io/ --></svg>